<svg width="227" height="227" viewBox="0 0 227 227" fill="none" xmlns="http://www.w3.org/2000/svg">
<circle cx="113.5" cy="113.5" r="113.5" fill="#37B874"/>
<path d="M189.575 108.495C173.009 88.5382 176.981 68 176.981 68C149.855 94.1572 162.158 113.63 162.158 113.63C153.536 105.783 158.768 92.2196 158.768 92.2196C141.717 114.405 145.495 132.521 152.374 141.143C152.083 136.687 152.567 127.193 157.799 120.508C157.799 120.508 157.605 132.327 165.549 133.78C165.549 133.78 158.283 122.349 174.268 107.042C174.268 107.042 171.943 119.055 181.631 130.777C184.537 134.362 184.925 137.946 183.956 141.24C191.609 133.393 199.844 120.799 189.575 108.495Z" fill="white"/>
<path d="M37.1851 106.848C39.1227 108.108 40.5759 109.755 41.4478 111.789V105.395H52.2013V140.465C52.2013 143.759 51.5231 146.665 50.2637 149.378C49.0043 151.994 47.0667 154.125 44.451 155.675C41.8353 157.225 38.6383 158 34.7632 158C29.4349 158 25.2691 156.741 22.0721 154.222C18.8751 151.703 16.9376 148.312 16.3563 144.049H27.0129C27.3036 145.503 28.0786 146.568 29.338 147.44C30.5005 148.215 32.1475 148.603 34.085 148.603C36.3132 148.603 38.1539 147.925 39.5102 146.665C40.8665 145.406 41.5447 143.371 41.5447 140.465V134.265C40.5759 136.396 39.2196 138.043 37.282 139.206C35.3445 140.465 33.0194 141.046 30.3068 141.046C27.4004 141.046 24.7847 140.368 22.5565 138.915C20.2314 137.462 18.4876 135.33 17.1313 132.618C15.6781 129.905 15 126.708 15 123.124C15 119.442 15.6781 116.245 17.0344 113.533C18.3907 110.82 20.1346 108.689 22.4596 107.236C24.7847 105.783 27.3036 105.104 30.2099 105.104C32.9225 105.007 35.2476 105.589 37.1851 106.848ZM28.0786 116.73C26.6254 118.28 25.9473 120.314 25.9473 123.027C25.9473 125.739 26.6254 127.871 28.0786 129.324C29.5318 130.874 31.3724 131.552 33.6975 131.552C35.9257 131.552 37.8633 130.777 39.3165 129.227C40.7696 127.677 41.4478 125.546 41.4478 122.93C41.4478 120.314 40.7696 118.183 39.3165 116.633C37.8633 115.083 36.0226 114.308 33.6975 114.308C31.3724 114.502 29.5318 115.277 28.0786 116.73Z" fill="white"/>
<path d="M85.4305 107.236C88.1431 108.689 90.3713 110.82 91.9214 113.533C93.4714 116.245 94.2465 119.442 94.2465 123.124C94.2465 126.805 93.4714 130.002 91.9214 132.715C90.3713 135.427 88.1431 137.559 85.4305 139.012C82.7179 140.465 79.5209 141.143 76.0333 141.143C72.5457 141.143 69.4456 140.465 66.6361 139.012C63.8266 137.559 61.6953 135.427 60.1453 132.715C58.5952 130.002 57.8202 126.805 57.8202 123.124C57.8202 119.442 58.5952 116.245 60.1453 113.533C61.6953 110.82 63.9235 108.689 66.6361 107.236C69.4456 105.783 72.5457 105.104 76.0333 105.104C79.6178 105.008 82.7179 105.783 85.4305 107.236ZM70.8988 116.633C69.4456 118.086 68.7674 120.314 68.7674 123.124C68.7674 125.933 69.4456 128.065 70.8988 129.518C72.3519 130.971 73.9989 131.746 76.1302 131.746C78.1646 131.746 79.9085 130.971 81.2648 129.518C82.6211 128.065 83.2992 125.933 83.2992 123.124C83.2992 120.314 82.6211 118.183 81.2648 116.633C79.9085 115.083 78.1646 114.405 76.1302 114.405C73.9989 114.405 72.2551 115.083 70.8988 116.633Z" fill="white"/>
<path d="M134.451 100.164C138.132 103.167 140.554 107.236 141.717 112.273H130.285C129.413 110.239 128.154 108.592 126.41 107.43C124.666 106.267 122.632 105.686 120.21 105.686C117.013 105.686 114.494 106.848 112.556 109.173C110.619 111.498 109.65 114.599 109.65 118.474C109.65 122.349 110.619 125.449 112.556 127.677C114.494 130.002 117.013 131.165 120.21 131.165C122.632 131.165 124.666 130.583 126.41 129.421C128.154 128.258 129.413 126.611 130.285 124.577H141.717C140.651 129.615 138.229 133.684 134.451 136.687C130.77 139.69 126.022 141.24 120.307 141.24C115.947 141.24 112.169 140.271 108.875 138.334C105.581 136.396 103.062 133.78 101.222 130.293C99.4778 126.805 98.509 122.93 98.509 118.474C98.509 114.017 99.3809 110.142 101.222 106.655C102.965 103.167 105.581 100.551 108.875 98.6136C112.169 96.6761 115.947 95.7073 120.307 95.7073C126.022 95.7073 130.77 97.1605 134.451 100.164Z" fill="white"/>
<path d="M210.016 94.4478V141.143H199.263V94.4478H210.016Z" fill="white"/>
</svg>
