<svg width="29" height="29" viewBox="0 0 29 29" fill="none" xmlns="http://www.w3.org/2000/svg">
<g clip-path="url(#clip0_1_307)">
<path d="M14.5 29C22.5081 29 29 22.5081 29 14.5C29 6.49187 22.5081 0 14.5 0C6.49187 0 0 6.49187 0 14.5C0 22.5081 6.49187 29 14.5 29Z" fill="#37B874"/>
<path d="M24.2189 13.8606C22.1025 11.3111 22.61 8.68726 22.61 8.68726C19.1445 12.0289 20.7163 14.5166 20.7163 14.5166C19.6148 13.5142 20.2832 11.7814 20.2832 11.7814C18.1049 14.6156 18.5875 16.93 19.4663 18.0315C19.4291 17.4622 19.491 16.2494 20.1594 15.3953C20.1594 15.3953 20.1346 16.9052 21.1495 17.0909C21.1495 17.0909 20.2212 15.6305 22.2634 13.675C22.2634 13.675 21.9663 15.2097 23.204 16.7072C23.5753 17.1652 23.6248 17.6231 23.501 18.0439C24.4787 17.0414 25.5308 15.4325 24.2189 13.8606Z" fill="white"/>
<path d="M4.75048 13.6502C4.99801 13.8111 5.18367 14.0215 5.29505 14.2814V13.4645H6.66885V17.9448C6.66885 18.3657 6.58221 18.7369 6.42131 19.0835C6.26042 19.4177 6.01289 19.6899 5.67872 19.888C5.34456 20.086 4.93613 20.185 4.44107 20.185C3.76037 20.185 3.22817 20.0242 2.81974 19.7023C2.41132 19.3805 2.16379 18.9473 2.08953 18.4027H3.45095C3.48809 18.5885 3.58709 18.7245 3.74799 18.8359C3.8965 18.9349 4.10691 18.9845 4.35443 18.9845C4.63909 18.9845 4.87425 18.8979 5.04752 18.7369C5.22079 18.5761 5.30743 18.3161 5.30743 17.9448V17.1528C5.18367 17.425 5.01039 17.6354 4.76286 17.784C4.51534 17.9448 4.2183 18.0191 3.87175 18.0191C3.50045 18.0191 3.16629 17.9324 2.88163 17.7468C2.58459 17.5612 2.36181 17.2888 2.18854 16.9424C2.00289 16.5958 1.91626 16.1873 1.91626 15.7295C1.91626 15.2591 2.00289 14.8507 2.17616 14.5042C2.34943 14.1576 2.57222 13.8853 2.86925 13.6997C3.16629 13.5141 3.48809 13.4274 3.85937 13.4274C4.20592 13.415 4.50296 13.4893 4.75048 13.6502ZM3.58709 14.9126C3.40144 15.1106 3.31481 15.3705 3.31481 15.7171C3.31481 16.0635 3.40144 16.3359 3.58709 16.5215C3.77275 16.7196 4.00789 16.8062 4.30493 16.8062C4.58959 16.8062 4.83712 16.7072 5.02277 16.5091C5.20841 16.3111 5.29505 16.0389 5.29505 15.7047C5.29505 15.3705 5.20841 15.0982 5.02277 14.9002C4.83712 14.7022 4.60197 14.6032 4.30493 14.6032C4.00789 14.628 3.77275 14.727 3.58709 14.9126Z" fill="white"/>
<path d="M10.914 13.6998C11.2606 13.8854 11.5452 14.1576 11.7433 14.5042C11.9413 14.8507 12.0403 15.2591 12.0403 15.7295C12.0403 16.1998 11.9413 16.6082 11.7433 16.9548C11.5452 17.3013 11.2606 17.5736 10.914 17.7593C10.5675 17.9449 10.1591 18.0315 9.7135 18.0315C9.26795 18.0315 8.8719 17.9449 8.51298 17.7593C8.15406 17.5736 7.88178 17.3013 7.68376 16.9548C7.48573 16.6082 7.38672 16.1998 7.38672 15.7295C7.38672 15.2591 7.48573 14.8507 7.68376 14.5042C7.88178 14.1576 8.16644 13.8854 8.51298 13.6998C8.8719 13.5142 9.26795 13.4274 9.7135 13.4274C10.1714 13.4151 10.5675 13.5142 10.914 13.6998ZM9.05755 14.9003C8.8719 15.0859 8.78526 15.3705 8.78526 15.7295C8.78526 16.0884 8.8719 16.3608 9.05755 16.5464C9.24319 16.732 9.4536 16.831 9.72588 16.831C9.98578 16.831 10.2086 16.732 10.3818 16.5464C10.5551 16.3608 10.6417 16.0884 10.6417 15.7295C10.6417 15.3705 10.5551 15.0983 10.3818 14.9003C10.2086 14.7023 9.98578 14.6156 9.72588 14.6156C9.4536 14.6156 9.23083 14.7023 9.05755 14.9003Z" fill="white"/>
<path d="M17.1765 12.7963C17.6468 13.1799 17.9562 13.6998 18.1048 14.3433H16.6443C16.5329 14.0834 16.3721 13.873 16.1493 13.7245C15.9265 13.576 15.6666 13.5017 15.3572 13.5017C14.9488 13.5017 14.627 13.6502 14.3794 13.9472C14.1319 14.2442 14.0081 14.6404 14.0081 15.1354C14.0081 15.6305 14.1319 16.0265 14.3794 16.3112C14.627 16.6082 14.9488 16.7568 15.3572 16.7568C15.6666 16.7568 15.9265 16.6824 16.1493 16.534C16.3721 16.3854 16.5329 16.175 16.6443 15.9151H18.1048C17.9686 16.5588 17.6592 17.0786 17.1765 17.4622C16.7063 17.8459 16.0997 18.0439 15.3696 18.0439C14.8126 18.0439 14.3299 17.9201 13.9091 17.6726C13.4883 17.425 13.1665 17.0908 12.9314 16.6454C12.7086 16.1998 12.5848 15.7047 12.5848 15.1354C12.5848 14.5661 12.6962 14.071 12.9314 13.6255C13.1541 13.1799 13.4883 12.8457 13.9091 12.5982C14.3299 12.3507 14.8126 12.2269 15.3696 12.2269C16.0997 12.2269 16.7063 12.4126 17.1765 12.7963Z" fill="white"/>
<path d="M26.8303 12.066V18.0315H25.4565V12.066H26.8303Z" fill="white"/>
</g>
<defs>
<clipPath id="clip0_1_307">
<rect width="29" height="29" fill="white"/>
</clipPath>
</defs>
</svg>
